<svg width="24" height="25" viewBox="0 0 24 25" fill="none" xmlns="http://www.w3.org/2000/svg">
<path d="M19.65 3.51001H4.35C3.6 3.51001 3 4.11001 3 4.78501V20.16C3 20.835 3.6 21.435 4.35 21.435H19.65C20.4 21.435 21 20.835 21 20.16V4.78501C21 4.11001 20.4 3.51001 19.65 3.51001ZM8.325 18.81H5.7V10.26H8.325V18.81ZM7.05 9.06001C6.225 9.06001 5.475 8.38501 5.475 7.48501C5.475 6.58501 6.15 5.91001 7.05 5.91001C7.875 5.91001 8.625 6.58501 8.625 7.48501C8.625 8.38501 7.875 9.06001 7.05 9.06001ZM18.375 18.735H15.75V14.535C15.75 13.56 15.75 12.21 14.325 12.21C12.9 12.21 12.75 13.335 12.75 14.385V18.66H10.125V10.26H12.6V11.385H12.675C13.05 10.71 13.95 9.96001 15.225 9.96001C17.925 9.96001 18.45 11.76 18.45 14.085V18.735H18.375Z" fill="#262626"/>
</svg>
